<?xml version="1.0" encoding="UTF-8"?>
<svg version="1.1" width="310" height="310" viewBox="0 0 310 310" xmlns="http://www.w3.org/2000/svg" xmlns:cc="http://creativecommons.org/ns#" xmlns:dc="http://purl.org/dc/elements/1.1/" xmlns:rdf="http://www.w3.org/1999/02/22-rdf-syntax-ns#">
<metadata>
<rdf:RDF>
<cc:Work rdf:about="">
<dc:format>image/svg+xml</dc:format>
<dc:type rdf:resource="http://purl.org/dc/dcmitype/StillImage"/>
<dc:title/>
</cc:Work>
</rdf:RDF>
</metadata>
<g transform="matrix(.99815 0 0 1.0014 -.59173 .14019)" fill="#0bb831">
<path d="m168.84-0.14-9.6934 9.8691c-5.3308 5.4287-11.819 12.525-14.42 15.77l-4.7285 5.8984 1.334 3.5098c1.6203 4.2636 1.7884 11.835 0.35156 15.82l-0.9375 2.6016 4.6738 4.3789c13.013 12.195 32.92 31.582 32.92 32.061 0 0.85956 0.82525 0.70473 11.484-2.166 5.5351-1.4907 12.108-3.2131 14.605-3.8281l4.541-1.1191 0.43164-2.5312c1.4582-8.542 8.3647-16.647 16.434-19.283 1.7521-0.57242 3.2446-1.084 3.3164-1.1387 0.24006-0.18262 3.2924-21.176 4.3633-30.01l1.0586-8.7227-1.8652-1.1582c-3.7303-2.316-16.578-8.3365-22.418-10.504-11.27-4.183-25.541-7.5598-38.371-9.082zm-24.9 0.035157c-2.8547 0.017063-13.313 1.561-20.078 3.0332-12.059 2.6243-29.518 8.3983-29.824 9.8633-0.05452 0.26122 2.1608 2.3574 4.9238 4.6582 2.763 2.3008 5.1421 4.2033 5.2871 4.2285 0.14498 0.02523 1.4174-0.51137 2.8262-1.1934 5.4697-2.6478 10.168-2.8645 19.672-0.90234 1.3108 0.27063 2.0144-0.3175 5.1602-4.3164 2.003-2.5462 5.749-6.9691 8.3242-9.8301s4.5702-5.3145 4.4336-5.4512c-0.0645-0.06452-0.3168-0.092281-0.72461-0.089843zm-66.963 21.111-4.0976 2.5801c-17.275 10.876-34.464 27.517-45.5 44.051l-2.084 3.1211 0.70312 5.0742c1.8867 13.632 4.7705 27.651 8.5332 41.736h42.234c5.6923-15.973 13.09-33.612 19.736-46.883l4.2051-8.3984-2.0254-2.5274c-3.6431-4.5471-5.2706-8.1802-6.166-13.758-0.33451-2.0836 0.3576-8.4539 1.1289-10.387 0.29265-0.73336-1.7545-2.6951-8.1387-7.7949zm173.21 10.621c-0.0565 0.06149-0.95022 5.9846-1.9863 13.162s-2.0433 14.005-2.2363 15.174c-0.31359 1.898-0.15102 2.2408 1.5215 3.2207 2.6845 1.5728 7.671 6.8014 8.5801 8.9961 0.71111 1.7168 0.95429 1.8416 2.9512 1.5156 1.197-0.19541 6.8189-0.78353 12.494-1.3066 5.6752-0.52311 11.356-1.1426 12.623-1.377l2.3027-0.42578-4.2754-5.957c-4.8741-6.7905-12.807-16.102-18.023-21.156-3.4168-3.3106-13.74-12.076-13.951-11.846zm-120.33 34.213-3.9941 1.3106c-2.196 0.7209-5.3074 1.3105-6.916 1.3105h-2.9258l-6.1465 12.652c-5.0172 10.326-11.07 24.486-15.607 36.455h10.395c13.985-6.0871 37.513-15.174 50.162-19.338 3.2549-1.0715 5.918-2.1666 5.918-2.4336 0-0.26701-5.5308-5.7611-12.291-12.209-6.7602-6.4479-13.71-13.08-15.443-14.736zm166.04 21.277-7.3359 0.41211c-4.0356 0.22669-12.231 0.94562-18.211 1.5977s-11.101 1.1856-11.381 1.1856c-0.27955 0-0.50755 0.34051-0.50781 0.75781-1e-3 1.9802-3.8995 8.6632-6.6699 11.434-3.1661 3.1661-8.6958 6.113-12.889 6.8711-2.3472 0.42437-2.5629 0.79172-3.7637 6.4297-0.0201 0.0943-0.36174 1.5192-0.41797 1.7637h54.066c3.9409 0 7.1133 2.8347 7.1133 6.3555v61.441c0 3.5208-3.1724 6.3555-7.1133 6.3555h-26.93c8.28 12.597 15.638 25.095 22.768 38.578l3.25 6.1465 2.043-3.3906c14.436-23.965 22.391-55.779 21.121-84.473-0.92943-21.003-4.5123-35.958-14.16-59.109zm-283.58 9.3613c-0.32831-0.06877-0.87372 1.2331-2.2617 4.8594-6.5352 17.074-10.139 39.59-9.3574 58.473 0.20723 5.0076 0.55364 10.124 0.76953 11.369 0.24878 1.435 0.64245 2.1187 1.0742 1.8652 0.37469-0.21998 3.0042-1.9402 5.8418-3.8223 1.7805-1.181 4.6011-2.9748 7.4805-4.7832v-40.516c0-1.7264 0.76563-3.2846 2.0078-4.4277-1.2393-4.6452-2.3056-9.0078-3.168-12.996-0.87837-4.0622-1.7837-8.188-2.0137-9.168-0.11911-0.50749-0.22381-0.82226-0.37305-0.85352zm200.69 2.3066-10.203 2.5312c-5.6118 1.3924-10.302 2.6135-10.424 2.7129-0.12192 0.0994 2.7458 3.4178 6.373 7.373 1.687 1.8396 3.6807 4.0485 5.5762 6.166h13.443l2.5801-11.438-3.6738-3.6738zm-38.939 10.441-12.281 4.125c-4.0002 1.3435-8.0335 2.7626-12.076 4.2168h32.061zm-146.98 19.375v54.285h39.266v-10.5h-25.338v-13.416h23.516v-10.5h-23.516v-9.3691h25.338v-10.5zm48.672 0v10.5h25.74l-27.053 33.613v10.172h45.609v-10.5h-28.473l27.016-33.432v-10.354zm53.996 0v54.285h39.156v-10.5h-25.156v-43.785zm61.578 0-20.053 54.285h14.109l3.7559-10.973h20.125l3.7539 10.973h14.475l-20.053-54.285zm43.969 0v54.285h12.832v-37.26l23.043 37.26h13.488v-54.285h-12.832v31.098l-19.797-31.098zm-36.094 13.891 6.6719 19.469h-13.344zm-183.35 41.662c-9.0841 5.8551-10.516 7.0343-10.516 8.0801 0 1.9011 3.4447 12.804 6.25 19.777 7.6069 18.91 18.168 35.433 31.34 49.035l3.9883 4.1172 0.46289-4.7246c0.25508-2.5991 1.0272-10.135 1.7168-16.746l1.2539-12.021-2.709-2.3848c-5.533-4.8703-8.352-11.104-8.4024-18.586-0.03666-5.4426 1.2916-10.098 4.0078-14.047l2.1074-3.0625-0.85352-1.8711h-21.533c-3.9409 0-7.1133-2.8347-7.1133-6.3555zm64.988 7.5664c2.5699 2.41 5.0045 5.5131 6.2012 8.127 3.6983 8.0781 2.9208 17.637-2.0176 24.787l-1.5918 2.3047 3.8496 5.5859c6.1418 8.9115 15.139 20.735 22.248 29.234 7.928 9.479 25.703 27.798 35.715 36.811 4.006 3.606 7.419 6.5675 7.5859 6.582 0.65677 0.0568 14.418-31.016 21.328-48.16 6.6635-16.532 11.824-30.532 17.924-48.623 1.7824-5.2865 3.6231-10.973 5.4219-16.648zm134.04 0c-11.893 38.077-26.069 75.428-41.023 107.89-3.0055 6.5237-4.246 9.8223-3.6934 9.8223 0.45762 0 3.9145-0.42851 7.6816-0.95117 25.29-3.5089 50.778-14.182 71.887-30.102 6.379-4.8109 17.35-15.069 23.334-21.818l3.7227-4.1973-1.3144-3.2383c-3.7659-9.2785-17.485-33.271-28.855-50.467-1.1084-1.6763-2.825-4.1647-4.7637-6.9375zm-146.82 43.68c-1.0549-0.0169-1.3798 0.42628-1.6621 2.2559-1.0745 6.9647-3.3769 33.837-3.3926 39.605-0.0055 2.0286 0.28908 2.3208 6.5195 6.4688 16.416 10.929 34.915 18.827 53.566 22.869 3.8391 0.83209 7.2309 1.5354 7.5391 1.5644s-3.1048-3.4576-7.5859-7.748c-17.374-16.634-36.649-39.541-49.729-59.098-2.9292-4.38-4.2811-5.9024-5.2559-5.918z" fill="#0bb831" stroke-width=".60698"/>
</g>
</svg>
